<svg xmlns="http://www.w3.org/2000/svg" viewBox="0 0 56.68 37.59"><defs><style>.cls-1{fill:#25a8e0;}.cls-2{fill:#1b293f;}.cls-3{fill:#f2f2f2;}.cls-4{fill:#919aaf;}</style></defs><title>Fichier 2</title><g id="Calque_2" data-name="Calque 2"><g id="Layer_1" data-name="Layer 1"><path class="cls-1" d="M40.44,12.31C32.58,9.38.17,7,.17,19.34s32.41,10,40.27,7,15.67-2.93,15.67-7S48.3,15.24,40.44,12.31Z"/><path class="cls-2" d="M33.79,15.4c-4.41-1.64-22.56-3-22.56,3.94s18.15,5.58,22.56,3.93,8.77-1.64,8.77-3.93S38.19,17,33.79,15.4Z"/><path class="cls-3" d="M56.68,18.33h0c-.19-7.17-2.73-8-10.45-10.4C38.17,5.44,36.13,0,23.9,0,12,0,.66,7.81,0,18.33c0,.16,0,.31,0,.47s0,.31,0,.46c.37,6.13,4.37,11.33,10,14.61h0c.29.17.59.34.9.5l.07,0c.28.15.57.29.86.43l.13.07.82.37.2.08c.25.11.51.22.78.32l.25.1.74.27.31.1.71.23.35.1.69.19.39.1.67.16.42.09c.22,0,.44.08.67.12l.43.08.67.1c.15,0,.29,0,.44.06l.68.07.44,0,.76,0,.37,0,1.13,0c12.23,0,14.27-5.44,22.32-7.93l.71-.22.41-.13.28-.09.42-.13.24-.07.42-.14.2-.07.42-.14.18-.06.4-.14.17,0,.39-.15.15-.05.37-.15.14-.05.36-.15.13-.05.34-.15.12-.06.33-.15.1-.06.32-.16.09,0,.3-.18L53.3,27l.28-.18.08-.05.27-.2.06-.05.26-.21s0,0,0-.05l.25-.22,0,0,.24-.25,0,0a3,3,0,0,0,.23-.27v0c1-1.35,1.5-3.21,1.58-6.12h0v-.93Zm-55.11.42v-.07l0-.26c.27-4.51,2.79-8.75,7.09-11.94A26,26,0,0,1,23.9,1.57c7.37,0,10.77,2.06,14.36,4.24a32.06,32.06,0,0,0,7.49,3.63c7.6,2.35,9.18,2.84,9.35,8.93-.13,2.83-5.5,5.27-9,6.25h0a58,58,0,0,0-5.7,1.74C35.22,28.31,19.15,30,9,27.33a3.13,3.13,0,0,0-.6-.28c-3.77-1.38-6-4.24-6.58-6.3a13.9,13.9,0,0,1-.19-1.58l0-.26v-.16Z"/><path class="cls-4" d="M51.61,27.82l.34-.15.12-.06.33-.15.1-.06.32-.16.09,0,.3-.18L53.3,27l.28-.18.08-.05.27-.2.06-.05.26-.21s0,0,0-.05l.25-.22,0,0,.24-.25,0,0a3,3,0,0,0,.23-.27v0A7.42,7.42,0,0,0,56.44,22c-.16,1.2-2.4,3.62-5.18,4.19A199.75,199.75,0,0,0,30.58,33C23,35.89,10.07,33.29.93,23.61A20.21,20.21,0,0,0,10,33.87h0c.29.17.59.34.9.5l.07,0c.28.15.57.29.86.43l.13.07.82.37.2.08c.25.11.51.22.78.32l.25.1.74.27.31.1.71.23.35.1.69.19.39.1.67.16.42.09c.22,0,.44.08.67.12l.43.08.67.1c.15,0,.29,0,.44.06l.68.07.44,0,.76,0,.37,0,1.13,0c12.23,0,14.27-5.44,22.32-7.93l.71-.22.41-.13.28-.09.42-.13.24-.07.42-.14.2-.07.42-.14.18-.06.4-.14.17,0,.39-.15.15-.05.37-.15.14-.05.36-.15Z"/><path class="cls-3" d="M27.6,16.68c0,.56-.68,1-1.51,1s-1.51-.45-1.51-1,.67-1,1.51-1S27.6,16.13,27.6,16.68Z"/><path class="cls-3" d="M23.05,22.38c0,.55-.68,1-1.52,1s-1.51-.45-1.51-1,.68-1,1.51-1S23.05,21.83,23.05,22.38Z"/><path class="cls-3" d="M17.94,17c0,.38-.47.7-1.05.7s-1.06-.32-1.06-.7.48-.7,1.06-.7S17.94,16.61,17.94,17Z"/><path class="cls-3" d="M17.64,20.38c0,.7-.86,1.27-1.92,1.27s-1.93-.57-1.93-1.27.87-1.28,1.93-1.28S17.64,19.67,17.64,20.38Z"/><path class="cls-3" d="M38,19.91c0,.55-.67,1-1.51,1s-1.51-.45-1.51-1,.68-1,1.51-1S38,19.35,38,19.91Z"/><ellipse class="cls-3" cx="27.17" cy="21.38" rx="2.22" ry="1.47"/><path class="cls-3" d="M23.76,18.69c0,.81-1,1.47-2.23,1.47s-2.22-.66-2.22-1.47,1-1.48,2.22-1.48S23.76,17.87,23.76,18.69Z"/><path class="cls-3" d="M33.45,18c0,.67-.82,1.21-1.83,1.21s-1.83-.54-1.83-1.21.82-1.22,1.83-1.22S33.45,17.34,33.45,18Z"/><polyline class="cls-3" points="16.25 16.91 19.18 4.72 19.31 4.8 17.32 17"/><ellipse class="cls-3" cx="19.17" cy="4.79" rx="1.02" ry="0.68"/><path class="cls-3" d="M25.18,6.73c0,.5-.61.9-1.36.9s-1.36-.4-1.36-.9.61-.9,1.36-.9S25.18,6.23,25.18,6.73Z"/><path class="cls-3" d="M31.7,11.56c0,.59-.73,1.07-1.63,1.07s-1.62-.48-1.62-1.07.72-1.08,1.62-1.08S31.7,11,31.7,11.56Z"/><path class="cls-3" d="M14.92,9.94c0,.43-.52.77-1.17.77s-1.16-.34-1.16-.77.52-.77,1.16-.77S14.92,9.52,14.92,9.94Z"/><path class="cls-3" d="M11.63,15.77c0,.5-.61.9-1.36.9s-1.36-.4-1.36-.9.61-.9,1.36-.9S11.63,15.27,11.63,15.77Z"/><path class="cls-3" d="M42.71,12.87c0,.5-.6.91-1.36.91S40,13.37,40,12.87s.6-.9,1.35-.9S42.71,12.38,42.71,12.87Z"/><path class="cls-3" d="M35.19,6.12c0,.37-.46.67-1,.67s-1-.3-1-.67.46-.68,1-.68S35.19,5.74,35.19,6.12Z"/><path class="cls-3" d="M24.07,14.58c0,.37-.46.67-1,.67s-1-.3-1-.67.45-.68,1-.68S24.07,14.21,24.07,14.58Z"/><polygon class="cls-3" points="21.14 18.69 17.78 11.79 18 10.47 22.57 18.69 21.14 18.69"/><polyline class="cls-3" points="26.56 16.68 24.09 7.17 23.5 6.43 25.65 16.68"/><polygon class="cls-3" points="19.73 14.28 24.29 9.4 24.41 9.8 20.19 15.15 19.73 14.28"/><polygon class="cls-3" points="27.38 21.53 30.07 11.39 26.56 21.53 27.38 21.53"/><polygon class="cls-3" points="32.23 17.69 30.07 11.39 31.01 18 32.23 17.69"/><polygon class="cls-3" points="37 19.91 34.44 5.83 33.98 6.17 35.8 20.07 37 19.91"/><polygon class="cls-3" points="30.07 11.22 24.41 6.79 29.45 11.56 30.07 11.22"/><polygon class="cls-3" points="29.89 11.32 33.84 6.12 34.17 6.12 30.58 11.73 29.89 11.32"/><polyline class="cls-3" points="21.12 22.38 23.05 14.58 22.17 22.38"/><polygon class="cls-3" points="16.25 20.38 13.89 9.94 13.43 9.53 14.91 20.38 16.25 20.38"/><path class="cls-3" d="M13.16,9.57c-.19.34,3.59-3.08,5.43-4.46.72-.54.72-.31.72-.31L14,9.85Z"/><polygon class="cls-3" points="15.38 19.5 10.64 16 10.41 16.46 14.91 20.91 15.38 19.5"/><path class="cls-3" d="M36.39,19.7c.08,0,4.65-6.53,4.65-6.53l.42.14-4.19,6.76Z"/><polygon class="cls-3" points="41.01 12.24 34.6 8.44 34.75 8.85 40.58 12.87 41.01 12.24"/></g></g></svg>